<svg width="200" height="47" viewBox="0 0 200 47" fill="none" xmlns="http://www.w3.org/2000/svg">
<rect width="200" height="46.6667" rx="18" fill="#1B4332"/>
<path d="M24.8836 32.3257L20 14.3225H23.2035L26.9557 28.1499L30.9771 14.3213L33.9633 14.3225L37.9988 28.2234L41.7679 14.3259L44.9713 14.3213L40.0857 32.3225L36.3725 32.3187L32.4715 18.8742L28.5668 32.3222L24.8836 32.3257Z" fill="white"/>
<path d="M47.1807 14.3318H50.2301V32.314H47.1807V14.3318Z" fill="white"/>
<path d="M56.7497 29.4933H64.1735V32.314H53.7633V14.3318H56.7497V29.4933Z" fill="white"/>
<path d="M73.5533 14.3526C76.0559 14.3526 78.138 15.2237 79.7784 16.9452C81.4398 18.6666 82.2811 20.803 82.2811 23.3333C82.2811 25.843 81.4398 27.9792 79.7784 29.7214C78.138 31.443 76.0559 32.314 73.5533 32.314H66.3819V14.3318H73.5533V14.3526ZM73.5533 29.514C75.2778 29.514 76.6869 28.9333 77.7384 27.7718C78.832 26.6104 79.3788 25.117 79.3788 23.354C79.3788 21.5496 78.832 20.0978 77.7384 18.9363C76.6659 17.7748 75.2568 17.194 73.5533 17.194H69.3893V29.514H73.5533Z" fill="white"/>
<path d="M98.3693 27.177C98.3693 28.6503 97.844 29.8747 96.7713 30.85C95.6987 31.8254 94.4367 32.3234 92.8807 32.3234H85.0781V14.3318H92.3127C93.806 14.3318 95.0673 14.8299 96.098 15.7637C97.15 16.7182 97.6547 17.9011 97.6547 19.3122C97.6547 20.8893 97.0233 22.0929 95.804 22.9852C97.402 23.8153 98.3693 25.3093 98.3693 27.177ZM88.0853 17.1126V21.8439H92.3333C93.6587 21.8439 94.668 20.8063 94.668 19.4782C94.668 18.1501 93.6587 17.1126 92.3333 17.1126H88.0853ZM92.9013 29.5427C94.2893 29.5427 95.3833 28.4428 95.3833 27.0318C95.3833 25.6206 94.2893 24.5208 92.9013 24.5208H88.0853V29.5634H92.9013V29.5427Z" fill="white"/>
<path d="M104.195 29.5012H112.271V32.3234H101.209V14.3318H112.145V17.154H104.195V21.8231H111.493V24.6245H104.195V29.5012Z" fill="white"/>
<path d="M125.352 32.3234L121.482 25.7659H117.949V32.3234H114.963V14.3318H122.26C123.901 14.3318 125.289 14.8921 126.403 16.0334C127.539 17.1333 128.128 18.5029 128.128 20.1215C128.128 22.4042 126.677 24.5 124.511 25.3301L128.653 32.3234H125.352ZM117.949 17.1125V23.1304H122.239C123.837 23.1304 125.099 21.8024 125.099 20.1215C125.099 18.4614 123.817 17.1125 122.239 17.1125H117.949Z" fill="white"/>
<path d="M141.314 32.3233L137.465 25.7624H133.932V32.3233H130.946V14.3224H138.243C139.884 14.3224 141.272 14.883 142.387 16.025C143.522 17.1254 144.111 18.4956 144.111 20.1151C144.111 22.399 142.66 24.496 140.494 25.3264L144.637 32.3233H141.314ZM133.932 17.1046V23.1256H138.223C139.821 23.1256 141.083 21.7968 141.083 20.1151C141.083 18.4542 139.8 17.1046 138.223 17.1046H133.932Z" fill="white"/>
<path d="M146.824 14.3245H149.811V32.3233H146.824V14.3245Z" fill="white"/>
<path d="M156.33 29.5012H164.406V32.3233H153.343V14.3318H164.279V17.154H156.33V21.8231H163.627V24.6246H156.33V29.5012Z" fill="white"/>
<path d="M166.488 28.2281L169.075 26.7348C169.811 28.7674 171.304 29.7629 173.596 29.7629C175.867 29.7629 176.982 28.8089 176.982 27.3985C176.982 26.6519 176.667 26.1126 176.078 25.7393C175.489 25.3452 174.395 24.9096 172.839 24.4533C171.093 23.9348 170.231 23.6029 169.011 22.8148C167.834 21.9852 167.245 20.8029 167.245 19.1852C167.245 17.5881 167.813 16.3437 168.969 15.4104C170.105 14.4563 171.493 14 173.113 14C176.036 14 178.286 15.4933 179.464 17.9615L176.94 19.3926C176.183 17.7333 174.9 16.8829 173.113 16.8829C171.367 16.8829 170.252 17.7541 170.252 19.1229C170.252 20.4504 171.135 21.0726 173.933 21.9229C174.627 22.1511 175.131 22.3171 175.447 22.4415C175.783 22.5452 176.225 22.7319 176.793 22.96C177.382 23.1881 177.845 23.4578 178.118 23.6859C179.085 24.4326 180.115 25.6563 179.989 27.3778C179.989 28.9955 179.401 30.3022 178.202 31.2563C177.024 32.2104 175.468 32.6667 173.533 32.6667C170 32.6459 167.434 30.9867 166.488 28.2281Z" fill="white"/>
</svg>
